<svg width="22" height="22" viewBox="0 0 22 22" fill="none" xmlns="http://www.w3.org/2000/svg">
<path fill-rule="evenodd" clip-rule="evenodd" d="M1.375 11C1.375 13.5527 2.38906 16.0009 4.1941 17.8059C5.99913 19.6109 8.44729 20.625 11 20.625C13.5527 20.625 16.0009 19.6109 17.8059 17.8059C19.6109 16.0009 20.625 13.5527 20.625 11C20.625 8.44729 19.6109 5.99913 17.8059 4.1941C16.0009 2.38906 13.5527 1.375 11 1.375C8.44729 1.375 5.99913 2.38906 4.1941 4.1941C2.38906 5.99913 1.375 8.44729 1.375 11V11ZM22 11C22 13.9174 20.8411 16.7153 18.7782 18.7782C16.7153 20.8411 13.9174 22 11 22C8.08262 22 5.28473 20.8411 3.22183 18.7782C1.15893 16.7153 0 13.9174 0 11C0 8.08262 1.15893 5.28473 3.22183 3.22183C5.28473 1.15893 8.08262 0 11 0C13.9174 0 16.7153 1.15893 18.7782 3.22183C20.8411 5.28473 22 8.08262 22 11V11ZM15.8125 10.3125C15.9948 10.3125 16.1697 10.3849 16.2986 10.5139C16.4276 10.6428 16.5 10.8177 16.5 11C16.5 11.1823 16.4276 11.3572 16.2986 11.4861C16.1697 11.6151 15.9948 11.6875 15.8125 11.6875H7.84712L10.7993 14.6382C10.8632 14.7022 10.9139 14.7781 10.9485 14.8616C10.9831 14.9451 11.0009 15.0346 11.0009 15.125C11.0009 15.2154 10.9831 15.3049 10.9485 15.3884C10.9139 15.4719 10.8632 15.5478 10.7993 15.6118C10.7353 15.6757 10.6594 15.7264 10.5759 15.761C10.4924 15.7956 10.4029 15.8134 10.3125 15.8134C10.2221 15.8134 10.1326 15.7956 10.0491 15.761C9.96556 15.7264 9.88967 15.6757 9.82575 15.6118L5.70075 11.4868C5.63673 11.4229 5.58593 11.347 5.55127 11.2635C5.51661 11.18 5.49877 11.0904 5.49877 11C5.49877 10.9096 5.51661 10.82 5.55127 10.7365C5.58593 10.653 5.63673 10.5771 5.70075 10.5132L9.82575 6.38825C9.95484 6.25916 10.1299 6.18663 10.3125 6.18663C10.4951 6.18663 10.6702 6.25916 10.7993 6.38825C10.9283 6.51734 11.0009 6.69243 11.0009 6.875C11.0009 7.05757 10.9283 7.23266 10.7993 7.36175L7.84712 10.3125H15.8125Z" fill="#C9216C"/>
</svg>
